<?xml version="1.0" standalone="no"?>
<!DOCTYPE svg PUBLIC "-//W3C//DTD SVG 20010904//EN"
 "http://www.w3.org/TR/2001/REC-SVG-20010904/DTD/svg10.dtd">
<svg version="1.0" xmlns="http://www.w3.org/2000/svg"
 width="338.000000pt" height="338.000000pt" viewBox="0 0 338.000000 338.000000"
 preserveAspectRatio="xMidYMid meet">

<g transform="translate(0.000000,338.000000) scale(0.100000,-0.100000)"
fill="#000000" stroke="none">
<path d="M504 3365 c-228 -50 -401 -210 -480 -445 -18 -52 -19 -115 -22 -1190
-2 -800 0 -1154 8 -1200 24 -138 93 -264 198 -361 74 -69 127 -100 228 -136
l79 -28 1175 0 1175 0 79 28 c103 36 156 68 232 139 78 73 135 161 171 263
l28 80 0 1175 0 1175 -28 79 c-36 103 -68 156 -140 232 -75 81 -151 130 -257
168 l-85 31 -1150 2 c-929 1 -1162 -1 -1211 -12z m2226 -829 l0 -194 -153 -3
c-226 -6 -230 -10 -231 -234 l-1 -150 178 -3 c160 -2 177 -4 177 -20 0 -9 -9
-96 -20 -192 -11 -96 -20 -176 -20 -177 0 -2 -72 -3 -160 -3 l-160 0 0 -585 0
-585 -260 0 -260 0 -2 583 -3 582 -102 3 -103 3 0 194 0 194 103 3 102 3 6
210 c4 183 8 218 27 273 42 117 108 193 208 239 91 42 170 51 432 52 l242 1 0
-194z"/>
</g>
</svg>
