<?xml version="1.0" standalone="no"?>
<!DOCTYPE svg PUBLIC "-//W3C//DTD SVG 20010904//EN"
 "http://www.w3.org/TR/2001/REC-SVG-20010904/DTD/svg10.dtd">
<svg version="1.0" xmlns="http://www.w3.org/2000/svg"
 width="128.000000pt" height="128.000000pt" viewBox="0 0 128.000000 128.000000"
 preserveAspectRatio="xMidYMid meet">

<g transform="translate(0.000000,128.000000) scale(0.100000,-0.100000)"
fill="#000000" stroke="none">
<path d="M525 1270 c-132 -28 -241 -87 -335 -180 -76 -76 -121 -149 -157 -252
-22 -61 -26 -92 -27 -183 -1 -125 12 -188 59 -290 76 -166 209 -289 368 -344
l57 -20 0 105 0 104 -36 0 c-53 0 -100 27 -136 76 -17 24 -39 46 -50 49 -10 4
-18 15 -18 25 0 10 -3 25 -6 34 -4 12 0 16 15 16 35 0 77 -27 116 -74 37 -45
74 -63 100 -48 19 10 56 82 49 93 -3 5 -14 9 -24 9 -64 0 -173 79 -213 155
-34 63 -31 172 7 250 16 33 28 64 27 70 -5 20 -3 95 4 125 6 26 10 29 33 24
15 -3 54 -19 87 -35 52 -25 65 -27 100 -19 51 12 138 12 192 0 38 -9 49 -7
100 19 32 16 70 32 85 35 23 5 27 2 33 -25 4 -17 7 -55 6 -85 0 -40 8 -70 31
-119 27 -59 30 -74 26 -133 -6 -78 -30 -132 -85 -184 -38 -37 -119 -78 -153
-78 -29 0 -32 -16 -10 -52 18 -29 20 -50 20 -185 l0 -152 57 20 c159 55 292
178 368 344 47 102 60 165 59 290 -1 91 -5 122 -27 183 -36 103 -81 176 -157
252 -121 120 -256 179 -425 185 -55 2 -118 0 -140 -5z"/>
</g>
</svg>
