<?xml version="1.0" standalone="no"?>
<!DOCTYPE svg PUBLIC "-//W3C//DTD SVG 20010904//EN"
 "http://www.w3.org/TR/2001/REC-SVG-20010904/DTD/svg10.dtd">
<svg version="1.0" xmlns="http://www.w3.org/2000/svg"
 width="128.000000pt" height="128.000000pt" viewBox="0 0 128.000000 128.000000"
 preserveAspectRatio="xMidYMid meet">

<g transform="translate(0.000000,128.000000) scale(0.100000,-0.100000)"
fill="#000000" stroke="none">
<path d="M197 1266 c-92 -33 -164 -109 -188 -198 -6 -24 -9 -193 -7 -451 3
-403 3 -413 25 -453 34 -63 66 -97 125 -129 l53 -30 435 0 435 0 53 30 c59 32
91 66 125 129 22 40 22 47 22 476 l0 435 -30 53 c-32 59 -66 91 -129 125 -40
22 -49 22 -461 24 -336 2 -428 0 -458 -11z m880 -77 c38 -14 92 -67 109 -106
20 -47 20 -839 0 -886 -17 -39 -71 -92 -109 -106 -46 -18 -839 -15 -880 3 -39
17 -92 71 -106 109 -15 39 -15 835 0 874 14 37 66 92 104 109 38 17 837 20
882 3z"/>
<path d="M1002 1068 c-28 -28 -7 -78 33 -78 12 0 26 5 33 12 7 7 12 21 12 33
0 12 -5 26 -12 33 -7 7 -21 12 -33 12 -12 0 -26 -5 -33 -12z"/>
<path d="M584 1019 c-329 -44 -444 -473 -182 -680 138 -109 338 -109 476 0 94
75 144 178 144 301 0 236 -202 411 -438 379z m163 -90 c115 -43 203 -168 203
-289 0 -162 -148 -310 -310 -310 -162 0 -310 148 -310 310 0 119 82 239 195
285 75 31 146 32 222 4z"/>
</g>
</svg>
