<?xml version="1.0" standalone="no"?>
<!DOCTYPE svg PUBLIC "-//W3C//DTD SVG 20010904//EN"
 "http://www.w3.org/TR/2001/REC-SVG-20010904/DTD/svg10.dtd">
<svg version="1.0" xmlns="http://www.w3.org/2000/svg"
 width="128.000000pt" height="128.000000pt" viewBox="0 0 128.000000 128.000000"
 preserveAspectRatio="xMidYMid meet">

<g transform="translate(0.000000,128.000000) scale(0.100000,-0.100000)"
fill="#000000" stroke="none">
<path d="M131 1273 c-13 -3 -45 -26 -72 -53 -37 -37 -49 -57 -54 -91 -3 -24
-5 -260 -3 -525 l3 -481 27 -36 c16 -19 43 -46 60 -59 l33 -23 516 0 516 0 36
27 c19 16 46 43 59 60 l23 33 0 515 0 515 -23 33 c-13 17 -40 44 -59 60 l-36
27 -501 1 c-276 1 -512 0 -525 -3z m319 -333 l0 -70 -75 0 -75 0 0 70 0 70 75
0 75 0 0 -70z m0 -410 l0 -260 -75 0 -75 0 0 260 0 260 75 0 75 0 0 -260z
m230 246 c0 -13 7 -13 46 1 88 30 173 -3 222 -85 26 -46 27 -51 30 -234 l4
-188 -76 0 -76 0 0 150 c0 113 -4 158 -15 179 -23 46 -66 54 -109 20 l-26 -20
0 -165 0 -164 -75 0 -75 0 0 260 0 260 75 0 c59 0 75 -3 75 -14z"/>
</g>
</svg>
