<?xml version="1.0" standalone="no"?>
<!DOCTYPE svg PUBLIC "-//W3C//DTD SVG 20010904//EN"
 "http://www.w3.org/TR/2001/REC-SVG-20010904/DTD/svg10.dtd">
<svg version="1.0" xmlns="http://www.w3.org/2000/svg"
 width="128.000000pt" height="128.000000pt" viewBox="0 0 128.000000 128.000000"
 preserveAspectRatio="xMidYMid meet">

<g transform="translate(0.000000,128.000000) scale(0.100000,-0.100000)"
fill="#000000" stroke="none">
<path d="M525 1270 c-68 -14 -156 -48 -214 -82 -71 -42 -177 -148 -219 -220
-113 -191 -119 -431 -17 -629 15 -27 13 -38 -29 -181 -25 -84 -44 -153 -43
-155 2 -1 71 18 155 43 143 42 154 44 181 29 154 -79 341 -95 499 -41 102 34
175 80 252 156 75 76 121 149 157 252 23 64 27 89 27 198 0 109 -4 134 -27
198 -36 103 -82 176 -157 252 -121 120 -256 179 -425 185 -55 2 -118 0 -140
-5z m-37 -293 c39 -40 72 -78 72 -84 0 -7 -14 -28 -30 -46 -39 -45 -46 -83
-22 -122 27 -44 224 -223 247 -225 40 -5 55 1 88 30 19 16 41 30 49 30 7 0 47
-33 87 -74 63 -64 73 -78 67 -99 -18 -72 -161 -100 -291 -57 -175 58 -373 254
-428 426 -37 114 -31 204 19 264 39 46 60 39 142 -43z"/>
</g>
</svg>
